<svg width="29" height="29" viewBox="0 0 29 29" fill="none" xmlns="http://www.w3.org/2000/svg">
<path d="M22.2338 15.6605C21.592 15.6605 21.0738 15.1407 21.0738 14.5005V14.4989C21.0722 14.4907 21.0722 14.4818 21.0722 14.4737C21.069 13.8302 21.5871 13.3104 22.2273 13.3071C22.8674 13.3055 23.3905 13.8221 23.3905 14.4639V14.4842V14.5005H23.3937C23.3937 15.1407 22.8739 15.6605 22.2338 15.6605ZM20.7916 20.7863C20.5663 21.0132 20.2669 21.1279 19.97 21.1279C19.6748 21.1279 19.3762 21.0132 19.1501 20.7863C18.697 20.3332 18.697 19.5994 19.1501 19.1479C19.6016 18.6916 20.3369 18.6916 20.79 19.1447C21.2439 19.5994 21.2439 20.3315 20.7916 20.7863ZM14.4998 19.3334C11.8293 19.3334 9.66728 17.1695 9.66728 14.5005C9.66728 11.8315 11.8293 9.66761 14.4998 9.66761C17.1686 9.66761 19.3323 11.8315 19.3323 14.5005C19.3323 17.1695 17.1694 19.3334 14.4998 19.3334ZM14.5079 23.3951C13.8678 23.3951 13.3464 22.8753 13.3464 22.2351C13.3464 21.5949 13.8678 21.0734 14.5063 21.0734C15.1465 21.0718 15.6662 21.5933 15.6695 22.2335C15.6695 22.872 15.1497 23.3919 14.5079 23.3951ZM9.86087 20.7952C9.63718 21.0222 9.33622 21.1385 9.03932 21.1385C8.74405 21.1385 8.44796 21.0222 8.22102 20.8001C7.76632 20.347 7.76632 19.6116 8.21939 19.1569C8.67247 18.7021 9.40292 18.7021 9.85762 19.1552C10.3123 19.6084 10.3123 20.3446 9.86087 20.7952ZM6.76907 15.676H6.76581C6.12728 15.676 5.60588 15.1578 5.60588 14.5176C5.60588 13.8774 6.12403 13.3576 6.76256 13.3543C7.40435 13.3527 7.92575 13.8709 7.92737 14.5143C7.92737 15.1537 7.41004 15.6744 6.76907 15.676ZM8.19417 8.22938C8.64725 7.77302 9.37933 7.7722 9.83728 8.22287C10.2904 8.67436 10.292 9.40812 9.84053 9.86448C9.61359 10.0931 9.31588 10.2061 9.01735 10.2061C8.72208 10.2061 8.42763 10.0931 8.19906 9.86773C7.7468 9.41625 7.74354 8.68249 8.19417 8.22938ZM14.4713 5.6059C15.1131 5.60428 15.6329 6.12246 15.6378 6.76267C15.6378 7.40288 15.1212 7.92595 14.4811 7.92758H14.4762C13.8377 7.92758 13.3163 7.41102 13.3146 6.77081C13.313 6.12735 13.8328 5.60916 14.4713 5.6059ZM19.1249 8.1944C19.5763 7.73967 20.31 7.73722 20.7647 8.18789C21.2194 8.63856 21.2235 9.37476 20.7696 9.8295C20.5443 10.0565 20.2466 10.1712 19.9481 10.1712C19.6544 10.1712 19.3567 10.0597 19.1314 9.83601C18.6767 9.3829 18.6734 8.64914 19.1249 8.1944ZM22.5217 11.1783C31.1594 7.60056 21.4017 -2.15959 17.8242 6.47877C21.4017 -2.15959 7.59957 -2.15959 11.177 6.47877C7.59957 -2.15959 -2.15983 7.60056 6.47949 11.1783C-2.15983 7.60056 -2.15983 21.4005 6.47949 17.8228C-2.15983 21.4005 7.59957 31.1606 11.177 22.5222C9.56479 26.4164 11.4836 28.555 13.7506 28.9365C14.2444 29.0212 14.7544 29.0212 15.2506 28.9365C17.516 28.555 19.4364 26.4164 17.8242 22.5222C21.4017 31.1606 31.1602 21.4005 22.5217 17.8228C31.1594 21.4005 31.1594 7.60056 22.5217 11.1783Z" fill="#1ED1D1"/>
</svg>
