<svg width="10" height="6" viewBox="0 0 10 6" fill="none" xmlns="http://www.w3.org/2000/svg">
<path d="M8.30809 5.72199C8.70684 6.10412 9.33986 6.09065 9.72199 5.69191C10.1041 5.29316 10.0906 4.66014 9.69191 4.27801L8.30809 5.72199ZM4.82609 1L5.51799 0.278012C5.32639 0.0943937 5.06966 -0.00553417 4.80434 0.000236511C4.53903 0.00600672 4.28688 0.117002 4.10345 0.308777L4.82609 1ZM0.277358 4.30878C-0.104394 4.70788 -0.0903273 5.34089 0.308777 5.72264C0.707881 6.10439 1.34089 6.09033 1.72264 5.69122L0.277358 4.30878ZM9.69191 4.27801L5.51799 0.278012L4.13418 1.72199L8.30809 5.72199L9.69191 4.27801ZM4.10345 0.308777L0.277358 4.30878L1.72264 5.69122L5.54873 1.69122L4.10345 0.308777Z" fill="#BDC4CE"/>
</svg>
