<svg width="28" height="28" viewBox="0 0 28 28" fill="none" xmlns="http://www.w3.org/2000/svg">
<path d="M20.9916 11.2099L11.0345 21.1723C10.7011 21.5057 10.1606 21.5057 9.82765 21.1723L6.20675 17.5496C5.87379 17.2158 5.87379 16.6753 6.20675 16.3419L16.1639 6.37958C16.4973 6.04618 17.0378 6.04618 17.3707 6.37958L20.9916 10.0022C21.3246 10.3356 21.3246 10.8765 20.9916 11.2099Z" fill="#F8F8F8"/>
<path d="M11.5859 12.069L13.0342 13.5172" stroke="#445259" stroke-width="1.5" stroke-linecap="round"/>
<path d="M14.4844 9.17241L15.9326 10.6207" stroke="#445259" stroke-width="1.5" stroke-linecap="round"/>
<path d="M21.957 1.58373C22.2899 1.25033 22.8304 1.25033 23.1634 1.58373L26.7843 5.20636C27.1172 5.53976 27.1172 6.08066 26.7843 6.41405L25.5774 7.62174C25.2441 7.95514 24.7036 7.95514 24.3706 7.62174L20.7497 3.99911C20.4168 3.66528 20.4168 3.12481 20.7497 2.79142L21.957 1.58373Z" fill="#B0CDE9"/>
<path d="M23.7691 6.98341L21.3551 9.39836L18.9414 6.98341L21.3551 4.56847L23.7691 6.98341Z" fill="#F8F8F8"/>
<path d="M11.0626 21.7362C10.6606 21.7362 10.2829 21.5795 9.99859 21.2952L6.37812 17.6725C6.09378 17.3886 5.9375 17.0105 5.9375 16.6085C5.9375 16.2057 6.09378 15.828 6.37812 15.5437L16.3344 5.58131C16.6187 5.29697 16.9968 5.14069 17.3984 5.14069C17.8004 5.14069 18.1781 5.29697 18.4624 5.58131L22.0829 9.20394C22.3672 9.48828 22.5235 9.86596 22.5235 10.2684C22.5235 10.6708 22.3672 11.0485 22.0829 11.3328L12.1266 21.2952C11.8422 21.5795 11.4641 21.7362 11.0626 21.7362ZM17.3988 6.44388C17.3606 6.44388 17.3046 6.45386 17.256 6.50248L7.2993 16.4648C7.24764 16.5169 7.24026 16.5768 7.24026 16.6085C7.24026 16.6394 7.24764 16.6997 7.2993 16.7514L10.9198 20.374C11.0179 20.4712 11.1077 20.4717 11.2058 20.374L21.1626 10.4116C21.2142 10.36 21.2216 10.2996 21.2216 10.2684C21.2216 10.2371 21.2142 10.1768 21.1626 10.1251L17.5421 6.50248C17.493 6.45386 17.4375 6.44388 17.3988 6.44388Z" fill="#445259"/>
<path d="M24.64 8.15167C24.238 8.15167 23.8599 7.99452 23.576 7.71018L19.9555 4.08754C19.369 3.50063 19.369 2.54559 19.9555 1.95867L21.1623 0.751417C21.7306 0.182301 22.7221 0.183169 23.2899 0.751417L26.9103 4.37362C27.4973 4.96097 27.4973 5.91557 26.9103 6.50249L25.704 7.71018C25.4196 7.99495 25.0415 8.15167 24.64 8.15167ZM22.2259 1.61312C22.1877 1.61312 22.1321 1.62398 22.0831 1.6726L20.8762 2.88029C20.7977 2.95929 20.7977 3.08736 20.8762 3.16593L24.4967 6.789C24.5857 6.87756 24.6682 6.90317 24.7828 6.789L25.9896 5.58131C26.0686 5.5023 26.0686 5.37381 25.9896 5.29523L22.3691 1.6726C22.3196 1.62398 22.2645 1.61312 22.2259 1.61312Z" fill="#445259"/>
<path d="M21.0179 9.7123C20.8456 9.7123 20.6798 9.64371 20.5578 9.52173L18.1441 7.10635C18.0221 6.98437 17.9531 6.8181 17.9531 6.64576C17.9531 6.47299 18.0221 6.30716 18.1441 6.18517L20.5578 3.77023C20.8122 3.51584 21.2241 3.51584 21.4785 3.77023L23.8922 6.18517C24.0141 6.30716 24.0832 6.47299 24.0832 6.64576C24.0832 6.8181 24.0141 6.98437 23.8922 7.10635L21.4785 9.52173C21.3565 9.64371 21.1907 9.7123 21.0179 9.7123ZM19.5255 6.64576L21.0179 8.13953L22.5108 6.64576L21.0179 5.15199L19.5255 6.64576Z" fill="#445259"/>
<path d="M8.0451 21.7362C7.64311 21.7362 7.265 21.5795 6.9811 21.2952L6.37769 20.6913C5.79077 20.1044 5.79077 19.1498 6.37769 18.5625L7.2828 17.6569C7.53719 17.4025 7.94916 17.4025 8.20355 17.6569L10.0138 19.468C10.1362 19.5904 10.2048 19.7563 10.2048 19.929C10.2048 20.1014 10.1362 20.2672 10.0138 20.3896L9.10866 21.2952C8.82476 21.5795 8.44665 21.7362 8.0451 21.7362ZM7.74296 19.0391L7.29843 19.4841C7.24677 19.5357 7.23939 19.5961 7.23939 19.6273C7.23939 19.6582 7.24677 19.7185 7.29843 19.7702L7.90184 20.374C7.9904 20.4621 8.07331 20.4882 8.18792 20.374L8.63245 19.929L7.74296 19.0391Z" fill="#445259"/>
<path d="M0.650946 27.6748C0.484682 27.6748 0.317985 27.611 0.190791 27.4838C-0.0635969 27.2294 -0.0635969 26.817 0.190791 26.5626L6.52704 20.2229C6.78099 19.9681 7.1934 19.9681 7.44778 20.2229C7.70217 20.4773 7.70217 20.8897 7.44778 21.1441L1.11197 27.4838C0.984775 27.611 0.817643 27.6748 0.650946 27.6748Z" fill="#445259"/>
</svg>
