<svg width="16" height="10" viewBox="0 0 16 10" fill="none" xmlns="http://www.w3.org/2000/svg">
<path d="M5.54149 1.51893C5.82809 1.21987 5.81799 0.745105 5.51893 0.458509C5.21987 0.171912 4.74511 0.182014 4.45851 0.481071L5.54149 1.51893ZM1 5.17391L0.458509 4.65498C0.320795 4.79869 0.24585 4.99123 0.250177 5.19022C0.254505 5.38921 0.337752 5.57832 0.481583 5.71589L1 5.17391ZM4.48158 9.54198C4.78091 9.8283 5.25567 9.81775 5.54198 9.51842C5.8283 9.21909 5.81775 8.74433 5.51842 8.45802L4.48158 9.54198ZM4.45851 0.481071L0.458509 4.65498L1.54149 5.69284L5.54149 1.51893L4.45851 0.481071ZM0.481583 5.71589L4.48158 9.54198L5.51842 8.45802L1.51842 4.63193L0.481583 5.71589Z" fill="#BDC4CE"/>
<path d="M2.5 5H14.5" stroke="#BDC4CE" stroke-width="1.5" stroke-linecap="round"/>
</svg>
