<svg width="38" height="39" viewBox="0 0 38 39" fill="none" xmlns="http://www.w3.org/2000/svg">
<g clip-path="url(#clip0)">
<path d="M24.7082 27.4017C25.1151 26.4116 25.9359 24.3927 26.7505 22.3858L25.3153 21.8028C25.2193 22.0371 24.9532 22.1489 24.7201 22.0542C24.7187 22.0536 23.9201 21.7262 23.9201 21.7262C23.9044 21.7217 23.8889 21.7165 23.8734 21.7102C23.8573 21.7036 23.8419 21.6961 23.827 21.688L16.7046 18.7681C16.4802 18.6761 16.3688 18.4261 16.4454 18.1995L14.9472 17.5908L13.6372 20.8156C14.8399 21.4248 15.7722 22.4308 16.2882 23.688C16.8597 25.0805 16.8562 26.6217 16.2784 28.0278C16.1827 28.2606 15.9168 28.3721 15.6838 28.2775L14.2403 31.8307C18.3192 33.4878 22.9812 31.5439 24.6809 27.4955C24.6866 27.4635 24.6957 27.4322 24.7082 27.4017Z" fill="#F9E6D9"/>
<path d="M21.5007 19.7467L23.7958 20.6876L27.2572 12.1672C27.386 11.8537 27.3874 11.513 27.262 11.2062C27.1368 10.9003 26.8984 10.6622 26.5907 10.5358C25.9531 10.2768 25.2253 10.5857 24.9636 11.2226L21.5007 19.7467Z" fill="#F9E6D9"/>
<path d="M16.4569 18.172C16.5525 17.939 16.8185 17.8273 17.0517 17.922C17.0531 17.9226 17.4745 18.0953 17.4745 18.0953L17.9909 16.824C18.0859 16.5902 18.3525 16.4777 18.5862 16.5727C18.82 16.6676 18.9326 16.9342 18.8376 17.168L18.32 18.442L20.6569 19.4L25.0283 8.63942C25.1563 8.32802 25.1554 7.98723 25.0263 7.67828C24.8973 7.36928 24.6557 7.12901 24.3459 7.00174C23.694 6.73688 22.9546 7.04103 22.6929 7.67786L19.5255 15.4747C19.4305 15.7085 19.164 15.821 18.9302 15.726C18.6964 15.631 18.5839 15.3645 18.6788 15.1307L20.9434 9.55637C21.1982 8.92187 20.8936 8.19373 20.2636 7.93494C19.6164 7.672 18.8563 7.98041 18.599 8.60646L14.9491 17.5909L16.4473 18.1995C16.4504 18.1903 16.4533 18.1811 16.4569 18.172Z" fill="#F9E6D9"/>
<path d="M28.9829 16.8819C29.251 16.2293 28.9717 15.5191 28.3479 15.2627C27.7042 15.0012 26.9714 15.3081 26.7097 15.945L24.6422 21.0343L25.0664 21.2082C25.2994 21.3037 25.411 21.5697 25.3163 21.8029L26.7515 22.3859C27.8636 19.6463 28.9638 16.9289 28.9829 16.8819Z" fill="#F9E6D9"/>
<path d="M15.6819 28.2767C15.4485 28.1807 15.337 27.9138 15.4329 27.6804C15.9187 26.4981 15.9222 25.2035 15.4426 24.0349C14.9623 22.8646 14.0506 21.9541 12.8754 21.4712C12.6427 21.3755 12.5311 21.1097 12.6258 20.8766L15.2822 14.3376C15.5371 13.703 15.2285 12.9732 14.5939 12.7124C13.9512 12.4514 13.2195 12.7587 12.9578 13.3956C12.9366 13.4479 10.7574 18.8387 9.77977 21.219C9.77449 21.2421 9.76731 21.2649 9.75813 21.2875C8.08104 25.4158 10.0915 30.1454 14.2399 31.8307C14.24 31.8307 15.6836 28.2774 15.6819 28.2767Z" fill="#F9E6D9"/>
<path d="M25.5918 27.6581C26.5996 25.2029 29.7973 17.3053 29.829 17.227C30.291 16.1026 29.793 14.8685 28.6953 14.4174L28.687 14.4141C28.2542 14.2382 27.7963 14.213 27.3724 14.3136L28.104 12.5128C28.324 11.9774 28.3257 11.3904 28.1086 10.86C27.89 10.3259 27.4747 9.91062 26.939 9.6905L26.9307 9.68715C26.5023 9.51311 26.049 9.48815 25.6286 9.58787L25.8734 8.98511C26.0935 8.4496 26.0919 7.86048 25.8688 7.32621C25.6458 6.79197 25.228 6.37659 24.6925 6.15648L24.6843 6.15314C23.5722 5.70135 22.2993 6.22954 21.8462 7.33223L21.6054 7.92489C21.375 7.56178 21.0353 7.26439 20.6102 7.08973L20.602 7.08641C19.4835 6.63201 18.2054 7.15809 17.7522 8.26082L15.9453 12.7086C15.7134 12.3431 15.371 12.0434 14.9425 11.8673L14.9343 11.8639C13.8316 11.416 12.5663 11.9472 12.1128 13.0508C12.0905 13.1059 9.87021 18.5981 8.90793 20.9397C8.89829 20.9633 8.89078 20.9875 8.88539 21.0121C7.06821 25.5909 9.30496 30.8119 13.8974 32.6775C16.1234 33.5818 18.5591 33.569 20.7559 32.6416C22.9527 31.7141 24.6606 29.9774 25.5649 27.7515C25.5774 27.7207 25.5863 27.6895 25.5918 27.6581ZM14.2413 31.8308C10.0929 30.1456 8.08239 25.4159 9.75948 21.2877C9.76866 21.2651 9.77584 21.2422 9.78112 21.2192C10.7587 18.8388 12.9379 13.448 12.9591 13.3957C13.2208 12.7589 13.9526 12.4515 14.5952 12.7126C15.2299 12.9734 15.5384 13.7031 15.2836 14.3377L12.6271 20.8767C12.5324 21.1098 12.644 21.3756 12.8768 21.4713C14.0519 21.9542 14.9636 22.8647 15.4439 24.035C15.9235 25.2036 15.9201 26.4982 15.4342 27.6805C15.3383 27.9139 15.4498 28.1809 15.6832 28.2768C15.918 28.3722 16.1839 28.2607 16.2795 28.0278C16.8574 26.6217 16.8608 25.0805 16.2894 23.688C15.7734 22.4309 14.841 21.4248 13.6383 20.8156L18.5982 8.60648C18.8555 7.98043 19.6157 7.67201 20.2629 7.93495C20.8928 8.1938 21.1974 8.92194 20.9426 9.55638L18.6781 15.1307C18.5831 15.3645 18.6956 15.6311 18.9294 15.726C19.1632 15.821 19.4298 15.7085 19.5247 15.4747L22.6921 7.67787C22.9538 7.04104 23.6932 6.7369 24.3451 7.00174C24.6549 7.12902 24.8965 7.36927 25.0255 7.67827C25.1545 7.98728 25.1554 8.32801 25.0275 8.63942L20.6561 19.3999L18.3192 18.4419L18.8368 17.168C18.9317 16.9342 18.8192 16.6677 18.5854 16.5727C18.3516 16.4777 18.0851 16.5903 17.9901 16.8241L17.4736 18.0954L17.0522 17.9226C16.8177 17.8273 16.5516 17.939 16.4561 18.1721C16.4524 18.1811 16.4496 18.1903 16.4465 18.1995C16.3698 18.4262 16.4812 18.6761 16.7056 18.7682L23.828 21.6881C23.8429 21.6962 23.8584 21.7037 23.8744 21.7102C23.8899 21.7165 23.9055 21.7217 23.9211 21.7262L24.7197 22.0536C24.9543 22.1489 25.2203 22.0372 25.3158 21.8042C25.4111 21.5696 25.2994 21.3036 25.0664 21.2081L24.6423 21.0342L26.7098 15.9449C26.9715 15.308 27.7042 15.0011 28.3479 15.2626C28.9718 15.519 29.251 16.2292 28.9829 16.8818C28.9639 16.9288 27.8636 19.6462 26.7516 22.3859C25.937 24.3927 25.1161 26.4116 24.7092 27.4018C24.6967 27.4322 24.6876 27.4636 24.682 27.4955C22.9822 31.5439 18.3201 33.4878 14.2413 31.8308ZM26.5916 10.5358C26.8992 10.6622 27.1376 10.9003 27.2628 11.2061C27.3884 11.5129 27.3869 11.8536 27.258 12.1672L23.7966 20.6876L21.5016 19.7467L24.9645 11.2225C25.2262 10.5857 25.954 10.2767 26.5916 10.5358Z" fill="#445259"/>
</g>
<defs>
<clipPath id="clip0">
<rect width="28.6339" height="28.6339" fill="white" transform="translate(11.3711 0.74472) rotate(22.1092)"/>
</clipPath>
</defs>
</svg>
