<svg width="29" height="29" viewBox="0 0 29 29" fill="none" xmlns="http://www.w3.org/2000/svg">
<path d="M24.9187 13.8963C26.331 14.1457 27.4049 15.3417 27.4049 16.7759C27.4049 18.2616 26.2524 19.4918 24.7649 19.6786C24.4019 21.7048 23.4046 23.5707 21.8679 25.0544C19.9006 26.9539 17.2845 28 14.5023 28H14.5016C11.7154 28 9.09655 26.9374 7.12647 25.0082C5.61712 23.5298 4.63071 21.6831 4.25474 19.6806C2.75975 19.5017 1.59766 18.2675 1.59766 16.7759C1.59766 15.3417 2.67156 14.1457 4.08384 13.8963V8.63862C3.95738 8.71056 3.83775 8.79702 3.72838 8.89998C3.4071 9.19963 2.93748 9.24649 2.56014 9.01548C2.1828 8.78514 2.02489 8.35614 2.16776 7.94759L2.43436 7.1866C2.57928 6.77277 2.79187 6.38865 3.06052 6.04742C3.36335 3.30574 5.32659 1.37653 8.75066 0.464401C11.366 -0.23257 14.1434 -0.143468 16.7814 0.721144L20.215 1.84646C21.2575 1.49138 22.4107 1.62668 23.3397 2.22135C24.3288 2.85496 24.9187 3.91757 24.9187 5.06335V13.8963ZM26.3112 16.7759C26.3112 15.9271 25.7226 15.2084 24.9187 14.98V17.9421C24.9187 18.1546 24.9112 18.3672 24.8975 18.5777C25.7124 18.3559 26.3112 17.6326 26.3112 16.7759ZM23.825 17.9421V13.0376C21.5227 12.7756 19.731 10.8807 19.731 8.58846V7.15558C18.1916 8.71782 16.1894 9.7778 13.9602 10.1877C11.2136 10.6926 8.41228 10.158 6.0717 8.68284C5.79485 8.5086 5.48724 8.41224 5.17757 8.3898V17.8418C5.17757 20.262 6.14621 22.5437 7.90507 24.2663C9.66802 25.9929 12.0107 26.944 14.5016 26.944C14.5016 26.944 14.5016 26.944 14.5023 26.944C16.9926 26.944 19.3339 26.0074 21.0941 24.3072C22.8557 22.6071 23.825 20.3465 23.825 17.9421ZM23.825 11.973V5.06335C23.825 4.26012 23.4278 3.54533 22.7347 3.10114C22.1434 2.72229 21.4468 2.61273 20.779 2.78301L20.8248 8.58846C20.8248 10.2972 22.1277 11.7182 23.825 11.973ZM19.7283 5.51611L19.6852 2.78763L16.43 1.72106C13.9999 0.924427 11.4453 0.841926 9.04186 1.48214C6.6213 2.12696 5.08256 3.27934 4.44682 4.91551C4.54116 4.86798 4.63754 4.82244 4.73598 4.78152C5.82151 4.33272 7.05742 4.3512 8.12723 4.83234C9.34742 5.38147 10.8233 5.08447 11.7147 4.11095L11.8507 3.96311C12.0503 3.74465 12.3962 3.72485 12.6225 3.91757C12.8487 4.11095 12.8699 4.44492 12.6696 4.66272L12.5343 4.81122C11.3237 6.1319 9.32145 6.53451 7.66581 5.79002C6.87696 5.43559 5.96643 5.42173 5.16664 5.7524C4.36685 6.0824 3.74889 6.72855 3.47067 7.52452L3.36403 7.82813C4.34634 7.17934 5.64173 7.15162 6.66915 7.79909C8.77185 9.12373 11.2888 9.60355 13.7552 9.15013C16.1641 8.70726 18.2784 7.41892 19.7283 5.51611ZM4.11119 18.579C4.09341 18.3348 4.08384 18.0893 4.08384 17.8418V14.98C3.27995 15.2084 2.69139 15.9271 2.69139 16.7759C2.69139 17.6346 3.29362 18.3592 4.11119 18.579Z" fill="#445259"/>
<path d="M23.8252 13.0376V17.9421C23.8252 20.3465 22.8558 22.6071 21.0943 24.3072C19.334 26.0074 16.9928 26.944 14.5025 26.944C14.5018 26.944 14.5018 26.944 14.5018 26.944C12.0108 26.944 9.66818 25.9929 7.90523 24.2663C6.14637 22.5437 5.17773 20.262 5.17773 17.8418V8.3898C5.4874 8.41224 5.79501 8.5086 6.07186 8.68284C8.41244 10.158 11.2138 10.6926 13.9604 10.1877C16.1896 9.7778 18.1918 8.71782 19.7312 7.15558V8.58846C19.7312 10.8807 21.5229 12.7756 23.8252 13.0376ZM21.6439 16.4894C21.8578 16.2835 21.8578 15.9489 21.6439 15.743C20.8277 14.9549 19.5001 14.9549 18.6839 15.743C18.47 15.9489 18.47 16.2835 18.6839 16.4894C18.8972 16.696 19.2438 16.696 19.4571 16.4894C19.8467 16.1132 20.4811 16.1132 20.8707 16.4894C20.9774 16.5931 21.1175 16.6445 21.2576 16.6445C21.3971 16.6445 21.5372 16.5931 21.6439 16.4894ZM20.9343 21.6982C21.1476 21.4923 21.1476 21.1577 20.9343 20.9518C20.721 20.7458 20.3744 20.7458 20.1612 20.9518C17.0406 23.9647 11.963 23.9647 8.84242 20.9518C8.62845 20.7458 8.28256 20.7458 8.0686 20.9518C7.85532 21.1577 7.85532 21.4923 8.0686 21.6982C9.8425 23.4109 12.1721 24.267 14.5018 24.267C16.8314 24.267 19.1611 23.4109 20.9343 21.6982ZM10.3196 16.4894C10.5329 16.2835 10.5329 15.9489 10.3196 15.743C9.92384 15.3615 9.39817 15.1509 8.839 15.1509C8.27983 15.1509 7.75415 15.3615 7.35904 15.743C7.14577 15.9489 7.14577 16.2835 7.35904 16.4894C7.57301 16.696 7.9189 16.696 8.13218 16.4894C8.32153 16.3073 8.5724 16.2069 8.839 16.2069C9.10628 16.2069 9.35715 16.3073 9.54582 16.4894C9.65314 16.5931 9.7926 16.6445 9.93273 16.6445C10.0729 16.6445 10.213 16.5931 10.3196 16.4894Z" fill="#F9E6D9"/>
<path d="M23.8253 5.06335V11.973C22.128 11.7182 20.8251 10.2972 20.8251 8.58846L20.7793 2.78301C21.4472 2.61273 22.1437 2.72229 22.735 3.10114C23.4282 3.54532 23.8253 4.26012 23.8253 5.06335Z" fill="#B0CDE9"/>
<path d="M6.21484 13H22.7863V17.7143C22.7863 22.2903 19.0766 26 14.5006 26C9.92448 26 6.21484 22.2903 6.21484 17.7143V13Z" fill="#F9E6D9"/>
<path d="M19.6845 2.78765L19.7275 5.51613C18.2777 7.41894 16.1633 8.70728 13.7544 9.15014C11.288 9.60357 8.7711 9.12374 6.6684 7.79911C5.64098 7.15164 4.34559 7.17936 3.36328 7.82815L3.46992 7.52454C3.74814 6.72857 4.3661 6.08242 5.16589 5.75242C5.96568 5.42175 6.87621 5.43561 7.66506 5.79004C9.3207 6.53453 11.3229 6.13192 12.5335 4.81124L12.6689 4.66274C12.8692 4.44494 12.848 4.11097 12.6217 3.91759C12.3954 3.72487 12.0496 3.74467 11.8499 3.96313L11.7139 4.11097C10.8225 5.08449 9.34667 5.38149 8.12648 4.83236C7.05667 4.35122 5.82076 4.33274 4.73523 4.78154C4.63679 4.82246 4.54041 4.868 4.44607 4.91552C5.08181 3.27936 6.62055 2.12698 9.04111 1.48215C11.4446 0.841945 13.9991 0.924446 16.4293 1.72108L19.6845 2.78765Z" fill="#B0CDE9"/>
<path d="M17.6492 16.019C17.4352 15.8131 17.4352 15.4785 17.6492 15.2726C17.7558 15.1689 17.8959 15.1175 18.0354 15.1175C18.1755 15.1175 18.3156 15.1689 18.4223 15.2726C18.8119 15.6488 19.4463 15.6488 19.8359 15.2726C20.0492 15.066 20.3958 15.066 20.6091 15.2726C20.823 15.4785 20.823 15.8131 20.6091 16.019C19.7929 16.8071 18.4654 16.8071 17.6492 16.019Z" fill="#536067"/>
<path d="M8.39507 16.018C8.18179 15.8121 8.18179 15.4775 8.39507 15.2715C8.50171 15.1679 8.64185 15.1164 8.78198 15.1164C8.92211 15.1164 9.06156 15.1679 9.16889 15.2715C9.35756 15.4537 9.60843 15.554 9.87571 15.554C10.1423 15.554 10.3932 15.4537 10.5825 15.2715C10.7958 15.0649 11.1417 15.0649 11.3557 15.2715C11.5689 15.4775 11.5689 15.8121 11.3557 16.018C10.9606 16.3995 10.4349 16.61 9.87571 16.61C9.31654 16.61 8.79087 16.3995 8.39507 16.018Z" fill="#536067"/>
<path d="M12 23.6551C13.5 22.2069 15.5 22.2069 17 23.6551" stroke="#536067" stroke-linecap="round"/>
<path d="M13.5 19.3103C13.8333 19.7931 15 20 15.5 19.3103" stroke="#536067" stroke-linecap="round"/>
<path d="M24.9196 14.98C25.7235 15.2083 26.3121 15.9271 26.3121 16.7759C26.3121 17.6326 25.7133 18.3559 24.8984 18.5777C24.9121 18.3672 24.9196 18.1546 24.9196 17.9421V14.98Z" fill="#F9E6D9"/>
<path d="M4.08386 17.8418C4.08386 18.0893 4.09343 18.3348 4.11121 18.579C3.29364 18.3592 2.69141 17.6345 2.69141 16.7759C2.69141 15.9271 3.27997 15.2083 4.08386 14.98V17.8418Z" fill="#F9E6D9"/>
</svg>
