<svg width="19" height="19" viewBox="0 0 19 19" fill="none" xmlns="http://www.w3.org/2000/svg">
<path d="M17.6596 4.78703H15.5314V1.31231C15.5314 0.994982 15.2742 0.737854 14.9569 0.737854H4.04305C3.72579 0.737854 3.46859 0.994982 3.46859 1.31231V4.78703H1.34041C0.601345 4.78703 0 5.3883 0 6.12744V13.4978C0 14.2368 0.601345 14.8382 1.34041 14.8382H3.46859V17.6877C3.46859 18.0051 3.72579 18.2622 4.04305 18.2622H14.9569C15.2741 18.2622 15.5313 18.0051 15.5313 17.6877V14.8382H17.6595C18.3986 14.8382 18.9999 14.2368 18.9999 13.4978V6.12744C19 5.38838 18.3987 4.78703 17.6596 4.78703ZM4.61751 1.88677H14.3824V4.78703H4.61751V1.88677ZM14.3824 17.1133H4.61751V11.4143H14.3824V17.1133ZM17.8511 13.4978C17.8511 13.6016 17.7634 13.6893 17.6596 13.6893H15.5314V10.8399C15.5314 10.5225 15.2742 10.2654 14.9569 10.2654H4.04305C3.72579 10.2654 3.46859 10.5225 3.46859 10.8399V13.6893H1.34041C1.23662 13.6893 1.14892 13.6016 1.14892 13.4978V6.12744C1.14892 6.02358 1.23662 5.93595 1.34041 5.93595H4.04305H14.9569H17.6595C17.7633 5.93595 17.851 6.02358 17.851 6.12744V13.4978H17.8511Z" fill="#BDC4CE"/>
</svg>
